<svg xmlns="http://www.w3.org/2000/svg" xmlns:xlink="http://www.w3.org/1999/xlink" width="500" zoomAndPan="magnify" viewBox="0 0 375 374.999991" height="500" preserveAspectRatio="xMidYMid meet" version="1.0"><defs><g/><clipPath id="869a1389e3"><path d="M 205.632812 0.878906 L 211.605469 29.960938 C 223.164062 31.730469 234.496094 34.761719 245.390625 39.011719 L 265.105469 16.816406 C 276.136719 21.828125 286.65625 27.902344 296.515625 34.945312 L 287.148438 63.121094 C 296.273438 70.429688 304.566406 78.722656 311.878906 87.851562 L 340.050781 78.480469 C 347.097656 88.339844 353.167969 98.863281 358.1875 109.894531 L 335.988281 129.605469 C 340.234375 140.503906 343.273438 151.832031 345.039062 163.390625 L 374.121094 169.367188 C 375.292969 181.425781 375.292969 193.574219 374.121094 205.632812 L 345.039062 211.601562 C 343.273438 223.167969 340.234375 234.496094 335.988281 245.394531 L 358.1875 265.105469 C 353.167969 276.136719 347.097656 286.652344 340.050781 296.511719 L 311.878906 287.148438 C 304.566406 296.269531 296.273438 304.570312 287.148438 311.878906 L 296.515625 340.046875 C 286.65625 347.097656 276.136719 353.164062 265.105469 358.183594 L 245.390625 335.988281 C 234.496094 340.230469 223.164062 343.269531 211.605469 345.039062 L 205.632812 374.121094 C 193.570312 375.292969 181.425781 375.292969 169.363281 374.121094 L 163.390625 345.039062 C 151.832031 343.269531 140.5 340.230469 129.605469 335.988281 L 109.886719 358.183594 C 98.863281 353.164062 88.34375 347.097656 78.484375 340.046875 L 87.851562 311.878906 C 78.722656 304.570312 70.425781 296.269531 63.113281 287.148438 L 34.945312 296.511719 C 27.902344 286.652344 21.828125 276.136719 16.808594 265.105469 L 39.007812 245.394531 C 34.761719 234.496094 31.722656 223.167969 29.957031 211.601562 L 0.878906 205.632812 C -0.292969 193.574219 -0.292969 181.425781 0.878906 169.367188 L 29.957031 163.390625 C 31.722656 151.832031 34.761719 140.503906 39.007812 129.605469 L 16.808594 109.894531 C 21.828125 98.863281 27.902344 88.339844 34.945312 78.480469 L 63.113281 87.851562 C 70.425781 78.722656 78.722656 70.429688 87.851562 63.121094 L 78.484375 34.945312 C 88.34375 27.902344 98.863281 21.828125 109.886719 16.816406 L 129.605469 39.011719 C 140.5 34.761719 151.832031 31.730469 163.390625 29.960938 L 169.363281 0.878906 C 181.425781 -0.292969 193.570312 -0.292969 205.632812 0.878906 Z M 187.5 70.316406 C 122.820312 70.316406 70.320312 122.828125 70.320312 187.496094 C 70.320312 252.171875 122.820312 304.683594 187.5 304.683594 C 252.171875 304.683594 304.679688 252.171875 304.679688 187.496094 C 304.679688 122.828125 252.171875 70.316406 187.5 70.316406 Z M 187.5 70.316406 " clip-rule="nonzero"/></clipPath><clipPath id="44d65f1376"><path d="M 0 0 L 375 0 L 375 375 L 0 375 Z M 0 0 " clip-rule="nonzero"/></clipPath><clipPath id="160ffca02e"><path d="M 205.632812 0.878906 L 211.605469 29.960938 C 223.164062 31.730469 234.496094 34.761719 245.390625 39.011719 L 265.105469 16.816406 C 276.136719 21.828125 286.65625 27.902344 296.515625 34.945312 L 287.148438 63.121094 C 296.273438 70.429688 304.566406 78.722656 311.878906 87.851562 L 340.050781 78.480469 C 347.097656 88.339844 353.167969 98.863281 358.1875 109.894531 L 335.988281 129.605469 C 340.234375 140.503906 343.273438 151.832031 345.039062 163.390625 L 374.121094 169.367188 C 375.292969 181.425781 375.292969 193.574219 374.121094 205.632812 L 345.039062 211.601562 C 343.273438 223.167969 340.234375 234.496094 335.988281 245.394531 L 358.1875 265.105469 C 353.167969 276.136719 347.097656 286.652344 340.050781 296.511719 L 311.878906 287.148438 C 304.566406 296.269531 296.273438 304.570312 287.148438 311.878906 L 296.515625 340.046875 C 286.65625 347.097656 276.136719 353.164062 265.105469 358.183594 L 245.390625 335.988281 C 234.496094 340.230469 223.164062 343.269531 211.605469 345.039062 L 205.632812 374.121094 C 193.570312 375.292969 181.425781 375.292969 169.363281 374.121094 L 163.390625 345.039062 C 151.832031 343.269531 140.5 340.230469 129.605469 335.988281 L 109.886719 358.183594 C 98.863281 353.164062 88.34375 347.097656 78.484375 340.046875 L 87.851562 311.878906 C 78.722656 304.570312 70.425781 296.269531 63.113281 287.148438 L 34.945312 296.511719 C 27.902344 286.652344 21.828125 276.136719 16.808594 265.105469 L 39.007812 245.394531 C 34.761719 234.496094 31.722656 223.167969 29.957031 211.601562 L 0.878906 205.632812 C -0.292969 193.574219 -0.292969 181.425781 0.878906 169.367188 L 29.957031 163.390625 C 31.722656 151.832031 34.761719 140.503906 39.007812 129.605469 L 16.808594 109.894531 C 21.828125 98.863281 27.902344 88.339844 34.945312 78.480469 L 63.113281 87.851562 C 70.425781 78.722656 78.722656 70.429688 87.851562 63.121094 L 78.484375 34.945312 C 88.34375 27.902344 98.863281 21.828125 109.886719 16.816406 L 129.605469 39.011719 C 140.5 34.761719 151.832031 31.730469 163.390625 29.960938 L 169.363281 0.878906 C 181.425781 -0.292969 193.570312 -0.292969 205.632812 0.878906 Z M 187.5 70.316406 C 122.820312 70.316406 70.320312 122.828125 70.320312 187.496094 C 70.320312 252.171875 122.820312 304.683594 187.5 304.683594 C 252.171875 304.683594 304.679688 252.171875 304.679688 187.496094 C 304.679688 122.828125 252.171875 70.316406 187.5 70.316406 Z M 187.5 70.316406 " clip-rule="nonzero"/></clipPath><clipPath id="7acdfd2139"><rect x="0" width="375" y="0" height="375"/></clipPath></defs><g clip-path="url(#869a1389e3)"><g transform="matrix(1, 0, 0, 1, 0, 0)"><g clip-path="url(#7acdfd2139)"><g clip-path="url(#44d65f1376)"><g clip-path="url(#160ffca02e)"><rect x="-82.5" width="540" fill="#919191" height="539.999987" y="-82.499998" fill-opacity="1"/></g></g></g></g></g><g fill="#000000" fill-opacity="1"><g transform="translate(105.984373, 198.749987)"><g><path d="M 11.84375 0.3125 C 9.96875 0.3125 8.296875 -0.113281 6.828125 -0.96875 C 5.359375 -1.832031 4.207031 -3.09375 3.375 -4.75 C 2.550781 -6.40625 2.140625 -8.390625 2.140625 -10.703125 C 2.140625 -13.023438 2.550781 -15.007812 3.375 -16.65625 C 4.207031 -18.3125 5.359375 -19.566406 6.828125 -20.421875 C 8.296875 -21.285156 9.96875 -21.71875 11.84375 -21.71875 C 13.84375 -21.71875 15.503906 -21.335938 16.828125 -20.578125 C 18.160156 -19.828125 19.117188 -18.691406 19.703125 -17.171875 L 18.09375 -16.09375 L 17.71875 -16.09375 C 17.132812 -17.320312 16.375 -18.191406 15.4375 -18.703125 C 14.5 -19.210938 13.300781 -19.46875 11.84375 -19.46875 C 10.488281 -19.46875 9.289062 -19.164062 8.25 -18.5625 C 7.207031 -17.96875 6.375 -17.015625 5.75 -15.703125 C 5.132812 -14.398438 4.828125 -12.734375 4.828125 -10.703125 C 4.828125 -8.671875 5.132812 -7.003906 5.75 -5.703125 C 6.375 -4.410156 7.207031 -3.460938 8.25 -2.859375 C 9.289062 -2.265625 10.488281 -1.96875 11.84375 -1.96875 C 13.394531 -1.96875 14.660156 -2.316406 15.640625 -3.015625 C 16.628906 -3.710938 17.363281 -4.84375 17.84375 -6.40625 L 18.203125 -6.40625 L 19.890625 -5.5625 C 19.378906 -3.664062 18.4375 -2.210938 17.0625 -1.203125 C 15.695312 -0.191406 13.957031 0.3125 11.84375 0.3125 Z M 11.84375 0.3125 "/></g></g></g><g fill="#000000" fill-opacity="1"><g transform="translate(126.982025, 198.749987)"><g><path d="M 6.4375 0.3125 C 5.289062 0.3125 4.390625 -0.0078125 3.734375 -0.65625 C 3.078125 -1.3125 2.75 -2.285156 2.75 -3.578125 L 2.75 -22.640625 L 5.140625 -22.640625 L 5.140625 -3.734375 C 5.140625 -3.054688 5.269531 -2.566406 5.53125 -2.265625 C 5.789062 -1.972656 6.191406 -1.828125 6.734375 -1.828125 C 7.066406 -1.828125 7.40625 -1.882812 7.75 -2 L 7.953125 -1.9375 L 8.234375 -0.0625 C 8.054688 0.0625 7.800781 0.15625 7.46875 0.21875 C 7.144531 0.28125 6.800781 0.3125 6.4375 0.3125 Z M 6.4375 0.3125 "/></g></g></g><g fill="#000000" fill-opacity="1"><g transform="translate(135.767654, 198.749987)"><g><path d="M 9.265625 0.3125 C 7.742188 0.3125 6.421875 -0.0078125 5.296875 -0.65625 C 4.171875 -1.300781 3.300781 -2.25 2.6875 -3.5 C 2.070312 -4.757812 1.765625 -6.285156 1.765625 -8.078125 C 1.765625 -9.859375 2.070312 -11.378906 2.6875 -12.640625 C 3.300781 -13.898438 4.171875 -14.851562 5.296875 -15.5 C 6.421875 -16.144531 7.742188 -16.46875 9.265625 -16.46875 C 10.796875 -16.46875 12.125 -16.144531 13.25 -15.5 C 14.375 -14.851562 15.238281 -13.898438 15.84375 -12.640625 C 16.457031 -11.378906 16.765625 -9.859375 16.765625 -8.078125 C 16.765625 -6.285156 16.457031 -4.757812 15.84375 -3.5 C 15.238281 -2.25 14.375 -1.300781 13.25 -0.65625 C 12.125 -0.0078125 10.796875 0.3125 9.265625 0.3125 Z M 9.265625 -1.828125 C 10.878906 -1.828125 12.113281 -2.332031 12.96875 -3.34375 C 13.820312 -4.363281 14.25 -5.941406 14.25 -8.078125 C 14.25 -10.210938 13.820312 -11.785156 12.96875 -12.796875 C 12.113281 -13.816406 10.878906 -14.328125 9.265625 -14.328125 C 7.660156 -14.328125 6.425781 -13.816406 5.5625 -12.796875 C 4.707031 -11.773438 4.28125 -10.203125 4.28125 -8.078125 C 4.28125 -5.941406 4.707031 -4.363281 5.5625 -3.34375 C 6.425781 -2.332031 7.660156 -1.828125 9.265625 -1.828125 Z M 9.265625 -1.828125 "/></g></g></g><g fill="#000000" fill-opacity="1"><g transform="translate(154.305331, 198.749987)"><g><path d="M 7.375 0.3125 C 6.351562 0.3125 5.410156 0.175781 4.546875 -0.09375 C 3.679688 -0.363281 2.953125 -0.734375 2.359375 -1.203125 C 1.765625 -1.671875 1.34375 -2.195312 1.09375 -2.78125 L 2.5 -4.25 L 2.8125 -4.25 C 3.34375 -3.445312 3.976562 -2.84375 4.71875 -2.4375 C 5.457031 -2.03125 6.34375 -1.828125 7.375 -1.828125 C 8.5625 -1.828125 9.460938 -2.054688 10.078125 -2.515625 C 10.703125 -2.984375 11.015625 -3.632812 11.015625 -4.46875 C 11.015625 -5.101562 10.828125 -5.628906 10.453125 -6.046875 C 10.078125 -6.460938 9.46875 -6.769531 8.625 -6.96875 L 5.90625 -7.640625 C 4.445312 -7.992188 3.382812 -8.550781 2.71875 -9.3125 C 2.050781 -10.070312 1.71875 -11.015625 1.71875 -12.140625 C 1.71875 -13.023438 1.941406 -13.789062 2.390625 -14.4375 C 2.835938 -15.082031 3.484375 -15.582031 4.328125 -15.9375 C 5.171875 -16.289062 6.175781 -16.46875 7.34375 -16.46875 C 8.820312 -16.46875 9.988281 -16.257812 10.84375 -15.84375 C 11.695312 -15.425781 12.363281 -14.847656 12.84375 -14.109375 L 11.5 -12.78125 L 11.203125 -12.78125 C 10.691406 -13.382812 10.128906 -13.816406 9.515625 -14.078125 C 8.898438 -14.335938 8.175781 -14.46875 7.34375 -14.46875 C 6.28125 -14.46875 5.460938 -14.273438 4.890625 -13.890625 C 4.328125 -13.515625 4.046875 -12.96875 4.046875 -12.25 C 4.046875 -11.59375 4.242188 -11.0625 4.640625 -10.65625 C 5.046875 -10.257812 5.742188 -9.941406 6.734375 -9.703125 L 9.421875 -9.046875 C 10.828125 -8.722656 11.84375 -8.171875 12.46875 -7.390625 C 13.09375 -6.617188 13.40625 -5.65625 13.40625 -4.5 C 13.40625 -3.550781 13.179688 -2.710938 12.734375 -1.984375 C 12.285156 -1.265625 11.601562 -0.703125 10.6875 -0.296875 C 9.78125 0.109375 8.675781 0.3125 7.375 0.3125 Z M 7.375 0.3125 "/></g></g></g><g fill="#000000" fill-opacity="1"><g transform="translate(169.240899, 198.749987)"><g><path d="M 15.390625 -7.53125 L 4.296875 -7.53125 C 4.359375 -5.5625 4.828125 -4.117188 5.703125 -3.203125 C 6.578125 -2.285156 7.773438 -1.828125 9.296875 -1.828125 C 10.453125 -1.828125 11.378906 -2.03125 12.078125 -2.4375 C 12.785156 -2.851562 13.335938 -3.5 13.734375 -4.375 L 14.046875 -4.375 L 15.59375 -3.453125 C 15.125 -2.285156 14.375 -1.363281 13.34375 -0.6875 C 12.320312 -0.0195312 10.972656 0.3125 9.296875 0.3125 C 7.734375 0.3125 6.390625 0.00390625 5.265625 -0.609375 C 4.148438 -1.222656 3.285156 -2.15625 2.671875 -3.40625 C 2.066406 -4.65625 1.765625 -6.210938 1.765625 -8.078125 C 1.765625 -9.910156 2.082031 -11.457031 2.71875 -12.71875 C 3.363281 -13.976562 4.238281 -14.914062 5.34375 -15.53125 C 6.457031 -16.15625 7.726562 -16.46875 9.15625 -16.46875 C 11.226562 -16.46875 12.84375 -15.882812 14 -14.71875 C 15.164062 -13.550781 15.753906 -11.816406 15.765625 -9.515625 C 15.765625 -8.617188 15.742188 -8.015625 15.703125 -7.703125 Z M 13.40625 -9.515625 C 13.363281 -11.234375 12.976562 -12.484375 12.25 -13.265625 C 11.53125 -14.046875 10.5 -14.4375 9.15625 -14.4375 C 7.738281 -14.4375 6.625 -14.039062 5.8125 -13.25 C 5.007812 -12.46875 4.519531 -11.222656 4.34375 -9.515625 Z M 13.40625 -9.515625 "/></g></g></g><g fill="#000000" fill-opacity="1"><g transform="translate(186.460732, 198.749987)"><g><path d="M 10.921875 -2.5625 L 11.6875 -0.84375 C 11.3125 -0.46875 10.8125 -0.179688 10.1875 0.015625 C 9.570312 0.210938 8.898438 0.3125 8.171875 0.3125 C 5.085938 0.3125 3.546875 -1.25 3.546875 -4.375 L 3.546875 -14.203125 L 0.734375 -14.203125 L 0.734375 -16.171875 L 3.546875 -16.171875 L 3.546875 -19.578125 L 5.9375 -19.984375 L 5.9375 -16.171875 L 11.140625 -16.171875 L 11.140625 -14.203125 L 5.9375 -14.203125 L 5.9375 -4.609375 C 5.9375 -2.753906 6.738281 -1.828125 8.34375 -1.828125 C 9.226562 -1.828125 9.988281 -2.070312 10.625 -2.5625 Z M 10.921875 -2.5625 "/></g></g></g><g fill="#000000" fill-opacity="1"><g transform="translate(198.760612, 198.749987)"><g><path d="M 15.828125 -21.421875 L 15.828125 -19.34375 L 5.75 -19.34375 L 5.75 -11.546875 L 14.8125 -11.546875 L 14.8125 -9.453125 L 5.75 -9.453125 L 5.75 0 L 3.234375 0 L 3.234375 -21.421875 Z M 15.828125 -21.421875 "/></g></g></g><g fill="#000000" fill-opacity="1"><g transform="translate(214.750319, 198.749987)"><g><path d="M 6.671875 0.3125 C 5.078125 0.3125 3.832031 -0.101562 2.9375 -0.9375 C 2.039062 -1.769531 1.59375 -2.957031 1.59375 -4.5 C 1.59375 -5.457031 1.789062 -6.265625 2.1875 -6.921875 C 2.582031 -7.578125 3.195312 -8.113281 4.03125 -8.53125 C 4.863281 -8.945312 5.945312 -9.269531 7.28125 -9.5 C 8.445312 -9.6875 9.335938 -9.898438 9.953125 -10.140625 C 10.566406 -10.390625 10.976562 -10.664062 11.1875 -10.96875 C 11.394531 -11.269531 11.5 -11.648438 11.5 -12.109375 C 11.5 -12.847656 11.242188 -13.410156 10.734375 -13.796875 C 10.234375 -14.191406 9.429688 -14.390625 8.328125 -14.390625 C 7.273438 -14.390625 6.375 -14.1875 5.625 -13.78125 C 4.882812 -13.375 4.203125 -12.769531 3.578125 -11.96875 L 3.28125 -11.96875 L 2.109375 -13.625 C 2.796875 -14.488281 3.664062 -15.175781 4.71875 -15.6875 C 5.769531 -16.207031 6.972656 -16.46875 8.328125 -16.46875 C 10.222656 -16.46875 11.625 -16.046875 12.53125 -15.203125 C 13.4375 -14.367188 13.890625 -13.21875 13.890625 -11.75 L 13.890625 -3.171875 C 13.890625 -2.273438 14.269531 -1.828125 15.03125 -1.828125 C 15.28125 -1.828125 15.523438 -1.875 15.765625 -1.96875 L 15.96875 -1.90625 L 16.25 -0.25 C 16.070312 -0.132812 15.835938 -0.046875 15.546875 0.015625 C 15.265625 0.0859375 14.96875 0.125 14.65625 0.125 C 13.769531 0.125 13.097656 -0.0703125 12.640625 -0.46875 C 12.191406 -0.863281 11.90625 -1.441406 11.78125 -2.203125 L 11.46875 -2.234375 C 11.007812 -1.378906 10.390625 -0.738281 9.609375 -0.3125 C 8.828125 0.101562 7.847656 0.3125 6.671875 0.3125 Z M 7.1875 -1.59375 C 8.09375 -1.59375 8.875 -1.800781 9.53125 -2.21875 C 10.1875 -2.632812 10.691406 -3.21875 11.046875 -3.96875 C 11.398438 -4.71875 11.578125 -5.585938 11.578125 -6.578125 L 11.578125 -8.625 L 11.296875 -8.6875 C 10.929688 -8.4375 10.488281 -8.222656 9.96875 -8.046875 C 9.457031 -7.878906 8.738281 -7.726562 7.8125 -7.59375 C 6.875 -7.457031 6.128906 -7.257812 5.578125 -7 C 5.023438 -6.738281 4.628906 -6.40625 4.390625 -6 C 4.160156 -5.59375 4.046875 -5.09375 4.046875 -4.5 C 4.046875 -3.550781 4.320312 -2.828125 4.875 -2.328125 C 5.4375 -1.835938 6.207031 -1.59375 7.1875 -1.59375 Z M 7.1875 -1.59375 "/></g></g></g><g fill="#000000" fill-opacity="1"><g transform="translate(231.457662, 198.749987)"><g><path d="M 4.015625 -19.28125 C 3.503906 -19.28125 3.085938 -19.4375 2.765625 -19.75 C 2.453125 -20.070312 2.296875 -20.476562 2.296875 -20.96875 C 2.296875 -21.445312 2.453125 -21.84375 2.765625 -22.15625 C 3.085938 -22.476562 3.503906 -22.640625 4.015625 -22.640625 C 4.523438 -22.640625 4.9375 -22.476562 5.25 -22.15625 C 5.570312 -21.84375 5.734375 -21.445312 5.734375 -20.96875 C 5.734375 -20.476562 5.570312 -20.070312 5.25 -19.75 C 4.9375 -19.4375 4.523438 -19.28125 4.015625 -19.28125 Z M 2.8125 0 L 2.8125 -16.15625 L 5.203125 -16.15625 L 5.203125 0 Z M 2.8125 0 "/></g></g></g><g fill="#000000" fill-opacity="1"><g transform="translate(239.467233, 198.749987)"><g><path d="M 2.8125 0 L 2.8125 -16.15625 L 5.078125 -16.15625 L 5.078125 -13.625 L 5.390625 -13.546875 C 6.140625 -15.378906 7.554688 -16.296875 9.640625 -16.296875 C 10.742188 -16.296875 11.566406 -16.097656 12.109375 -15.703125 L 11.5 -13.6875 L 11.203125 -13.625 C 10.597656 -13.925781 9.9375 -14.078125 9.21875 -14.078125 C 7.925781 -14.078125 6.929688 -13.59375 6.234375 -12.625 C 5.546875 -11.65625 5.203125 -10.085938 5.203125 -7.921875 L 5.203125 0 Z M 2.8125 0 "/></g></g></g><g fill="#000000" fill-opacity="1"><g transform="translate(251.942826, 198.749987)"><g><path d="M 3.234375 6.859375 C 2.691406 6.859375 2.179688 6.8125 1.703125 6.71875 C 1.234375 6.625 0.828125 6.492188 0.484375 6.328125 L 0.921875 4.4375 L 1.1875 4.34375 C 1.414062 4.46875 1.707031 4.570312 2.0625 4.65625 C 2.414062 4.738281 2.78125 4.78125 3.15625 4.78125 C 3.800781 4.78125 4.335938 4.691406 4.765625 4.515625 C 5.203125 4.335938 5.570312 4.046875 5.875 3.640625 C 6.1875 3.234375 6.472656 2.675781 6.734375 1.96875 L 7.3125 0.375 L 0.828125 -16.15625 L 3.40625 -16.15625 L 8.484375 -2.96875 L 8.765625 -2.96875 L 13.6875 -16.15625 L 16.125 -16.15625 L 8.90625 2.53125 C 8.5 3.570312 8.039062 4.40625 7.53125 5.03125 C 7.019531 5.664062 6.414062 6.128906 5.71875 6.421875 C 5.03125 6.710938 4.203125 6.859375 3.234375 6.859375 Z M 3.234375 6.859375 "/></g></g></g></svg>